# xmcd
#
# Track frame offsets:
#	150
#	699
#	9502
#	21183
#	35554
#	52129
#	67665
#	85851
#	105214
#	126064
#	147947
#	166449
#	194823
#	211398
#	235095
#	255434
#	277590
#	297666
#	312170
#	324353
#	336529
#
# Disc length: 4770 seconds
#
# Revision: 1
# Processed by: cddbd v1.4PL0 Copyright (c) Steve Scherf et al.
# Submitted via: audiograbber 1.81.02
#
DISCID=2712a015
DTITLE=Dark Trance - Part 6 - CD 1
DYEAR=2003
DGENRE=Trance
TTITLE0=Hypetraxx - Intro
TTITLE1=Marcel Woods - A Decade
TTITLE2=Planet Funk - Who Said (Stuck In The UK)
TTITLE3=Darude - Music
TTITLE4=Dumonde - Human
TTITLE5=Tanks and Savietto - Outrageous
TTITLE6=DJ Sakin - Sometimes
TTITLE7=Rood Y-LER - Feel
TTITLE8=Don Diablo - Anarchy
TTITLE9=Arome - Visions Of Paradize
TTITLE10=G and M Project - Control Of Your Mind
TTITLE11=Riot 303 vs. Observer - Alive and Kickin'
TTITLE12=Steve Baltes vs. Alquimia - Sola Danza
TTITLE13=Overdog - Fuck U Up
TTITLE14=Mass In Orbit - Power Is Your Mind
TTITLE15=Mayhem - Distorted Soul
TTITLE16=Drugface - Cunt Master
TTITLE17=Y.O.M.C. - Deftig
TTITLE18=Yakooza - French Kiss
TTITLE19=Hypetraxx - Outro
TTITLE20=DatenTrack - Daten-CD
EXTD=
EXTT0=
EXTT1=
EXTT2=
EXTT3=
EXTT4=
EXTT5=
EXTT6=
EXTT7=
EXTT8=
EXTT9=
EXTT10=
EXTT11=
EXTT12=
EXTT13=
EXTT14=
EXTT15=
EXTT16=
EXTT17=
EXTT18=
EXTT19=
EXTT20=
PLAYORDER=
